<?xml version="1.0" encoding="UTF-8"?>
<svg xmlns="http://www.w3.org/2000/svg" version="1.1" viewBox="0 0 24 24">
  <!-- Generator: Adobe Illustrator 30.1.0, SVG Export Plug-In . SVG Version: 2.1.1 Build 136)  -->
  <defs>
    <style>
      .st0 {
        fill: #fff;
      }
    </style>
  </defs>
  <g id="Layer_2">
    <ellipse class="st0" cx="46.86" cy="44.23" rx="6.17" ry="1.84"/>
  </g>
  <g id="Layer_7">
    <path class="st0" d="M12,.33C5.55.33.33,5.55.33,12s5.22,11.67,11.67,11.67,11.67-5.22,11.67-11.67S18.45.33,12,.33ZM15.9,8.64c0,1.69-1.08,3.12-2.59,3.66v6.23c0,.42-.34.76-.76.76h-1.09c-.42,0-.76-.34-.76-.76v-6.23c-1.74-.63-2.92-2.43-2.52-4.46.29-1.49,1.48-2.71,2.97-3.02,2.53-.53,4.75,1.38,4.75,3.81h0Z"/>
  </g>
</svg>